<svg xmlns="http://www.w3.org/2000/svg" width="512" height="512" viewBox="0 0 512 512" style="isolation:isolate" id="floppy-disk"><path fill="#9FE5FF" d=" M 67.225 42 L 421.158 42 L 458.259 87.346 L 458.259 456.516 L 67.225 456.516 L 67.225 42 Z "></path><linearGradient id="a" x1=".254" x2=".66" y1=".993" y2=".061" gradientTransform="matrix(388.202 0 0 411.513 53.741 58.487)" gradientUnits="userSpaceOnUse"><stop offset="1.739%" stop-color="#0397f2"></stop><stop offset="99.13%" stop-color="#3ccbff"></stop></linearGradient><path fill="url(#a)" d=" M 53.741 58.487 L 405.11 58.487 L 441.942 103.505 L 441.942 470 L 53.741 470 L 53.741 58.487 Z "></path><path fill="#FFDC74" fill-rule="evenodd" d=" M 116.34 297.87 L 408.29 297.87 L 408.29 461.1 L 116.34 461.1 L 116.34 297.87 Z  M 123.34 304.87 L 401.29 304.87 L 401.29 454.1 L 123.34 454.1 L 123.34 304.87 Z "></path><rect width="284.957" height="159.595" x="107.428" y="58.487" fill="#0290E8"></rect><linearGradient id="b" x1=".406" x2=".661" y1="1.019" y2=".115" gradientTransform="matrix(284.957 0 0 156.227 107.428 313.773)" gradientUnits="userSpaceOnUse"><stop offset="0%" stop-color="#fbb334"></stop><stop offset="100%" stop-color="#ffdc74"></stop></linearGradient><rect width="284.957" height="156.227" x="107.428" y="313.773" fill="url(#b)"></rect><rect width="37.168" height="107.375" x="322.178" y="81.798" fill="#FFF"></rect><rect width="252.887" height="7.101" x="123.463" y="388.336" fill="#FFF"></rect><rect width="252.887" height="7.101" x="123.463" y="430.943" fill="#FFF"></rect><rect width="252.887" height="7.101" x="123.463" y="345.728" fill="#FFF"></rect></svg>